<svg xmlns="http://www.w3.org/2000/svg" xmlns:xlink="http://www.w3.org/1999/xlink" width="1000" zoomAndPan="magnify" viewBox="0 0 750 749.999995" height="1000" preserveAspectRatio="xMidYMid meet" version="1.0"><defs><g/><clipPath id="61a8303b5b"><path d="M 209 239.636719 L 490 239.636719 L 490 334.886719 L 209 334.886719 Z M 209 239.636719 " clip-rule="nonzero"/></clipPath></defs><g fill="#ffffff" fill-opacity="1"><g transform="translate(241.400381, 403.5)"><g><path d="M 58.546875 -60.5625 L 58.640625 -57.3125 C 55.179688 -57.425781 53.007812 -57.015625 52.125 -56.078125 C 50.894531 -54.960938 49.429688 -52.59375 47.734375 -48.96875 L 34.984375 -24.265625 L 34.984375 -2.640625 L 43.421875 -2.71875 L 43.421875 0.09375 L 18.640625 0 L 18.640625 -2.71875 L 26.71875 -2.640625 L 26.71875 -23.828125 L 7.390625 -57.84375 L 0.703125 -57.84375 L 0.703125 -60.5625 L 23.640625 -60.5625 L 23.640625 -57.84375 L 17.140625 -57.84375 L 33.046875 -28.390625 L 43.078125 -48 C 44.835938 -51.039062 45.71875 -53.351562 45.71875 -54.9375 C 45.71875 -55.644531 45.25 -56.378906 44.3125 -57.140625 C 43.832031 -57.609375 42.128906 -57.785156 39.203125 -57.671875 L 39.296875 -60.5625 Z M 58.546875 -60.5625 "/></g></g></g><g fill="#ffffff" fill-opacity="1"><g transform="translate(301.517565, 403.5)"><g><path d="M 63.5625 -60.828125 L 63.5625 -58.109375 C 60.101562 -58.109375 58.078125 -57.816406 57.484375 -57.234375 C 56.023438 -55.765625 55.296875 -53.476562 55.296875 -50.375 L 55.296875 -24.53125 C 55.296875 -15.144531 53.679688 -8.488281 50.453125 -4.5625 C 47.234375 -0.644531 41.347656 1.3125 32.796875 1.3125 C 25.878906 1.3125 20.5 -0.78125 16.65625 -4.96875 C 12.820312 -9.15625 10.90625 -13.914062 10.90625 -19.25 L 10.90625 -58.109375 L 2.8125 -58.109375 L 2.8125 -60.828125 L 26.984375 -60.828125 L 26.984375 -58.109375 L 18.71875 -58.109375 L 18.71875 -19.609375 C 18.71875 -7.410156 24.257812 -1.3125 35.34375 -1.3125 C 46.707031 -1.3125 52.390625 -8.113281 52.390625 -21.71875 L 52.390625 -50.375 C 52.390625 -53.59375 51.628906 -55.90625 50.109375 -57.3125 C 49.523438 -57.84375 47.5625 -58.109375 44.21875 -58.109375 L 44.21875 -60.828125 Z M 63.5625 -60.828125 "/></g></g></g><g fill="#ffffff" fill-opacity="1"><g transform="translate(367.171859, 403.5)"><g><path d="M 74.546875 -2.71875 L 74.546875 0 L 50.109375 0 L 50.109375 -2.71875 L 58.28125 -2.71875 L 58.28125 -54.5 L 37.015625 -0.96875 L 35.6875 -0.875 L 16.265625 -54.234375 L 16.265625 -10.28125 C 16.265625 -7.289062 16.992188 -5.066406 18.453125 -3.609375 C 19.046875 -3.015625 21.039062 -2.71875 24.4375 -2.71875 L 24.4375 0 L 5.09375 0 L 5.09375 -2.71875 C 8.375 -2.71875 10.3125 -2.984375 10.90625 -3.515625 C 12.539062 -4.921875 13.359375 -7.175781 13.359375 -10.28125 L 13.359375 -55.828125 C 13.179688 -57.171875 12.300781 -57.84375 10.71875 -57.84375 L 5.796875 -57.84375 L 5.796875 -60.5625 L 23.125 -60.5625 L 39.296875 -14.859375 L 57.75 -60.5625 L 74.546875 -60.5625 L 74.546875 -57.84375 L 66.375 -57.84375 L 66.375 -2.71875 Z M 74.546875 -2.71875 "/></g></g></g><g fill="#ffffff" fill-opacity="1"><g transform="translate(447.240215, 403.5)"><g><path d="M 53.703125 -21.015625 L 56.53125 -21.015625 L 55.5625 0 L 4.484375 0 L 4.484375 -2.71875 L 12.75 -2.71875 L 12.75 -57.84375 L 4.484375 -57.84375 L 4.484375 -60.5625 L 54.15625 -60.5625 L 54.328125 -42.71875 L 51.59375 -42.71875 C 51.1875 -47.820312 49.78125 -51.554688 47.375 -53.921875 C 44.976562 -56.296875 41.054688 -57.546875 35.609375 -57.671875 L 20.5625 -57.84375 L 20.5625 -32.34375 L 31.296875 -32.34375 C 33.816406 -32.34375 35.691406 -33.078125 36.921875 -34.546875 C 38.265625 -36.421875 38.9375 -39.144531 38.9375 -42.71875 L 41.671875 -42.71875 L 41.671875 -18.375 L 38.9375 -18.375 C 38.9375 -21.832031 38.21875 -24.523438 36.78125 -26.453125 C 35.351562 -28.390625 33.523438 -29.359375 31.296875 -29.359375 L 20.5625 -29.359375 L 20.5625 -2.71875 L 37.015625 -2.984375 C 38.648438 -2.984375 40.625 -3.421875 42.9375 -4.296875 C 45.257812 -5.179688 46.972656 -6.179688 48.078125 -7.296875 C 51.597656 -10.578125 53.472656 -15.148438 53.703125 -21.015625 Z M 53.703125 -21.015625 "/></g></g></g><g clip-path="url(#61a8303b5b)"><path fill="#bd9468" d="M 214.023438 334.101562 L 349.460938 246.484375 C 349.460938 246.484375 484.894531 334.101562 484.894531 334.101562 C 486.296875 335.007812 488.171875 334.609375 489.078125 333.207031 C 489.984375 331.804688 489.585938 329.929688 488.179688 329.023438 C 488.179688 329.023438 351.101562 240.34375 351.101562 240.34375 C 350.101562 239.695312 348.816406 239.695312 347.816406 240.34375 C 347.816406 240.34375 210.738281 329.023438 210.738281 329.023438 C 209.335938 329.929688 208.9375 331.804688 209.84375 333.207031 C 210.75 334.609375 212.621094 335.007812 214.023438 334.101562 Z M 214.023438 334.101562 " fill-opacity="1" fill-rule="evenodd"/></g><path fill="#bd9468" d="M 382.945312 264.398438 L 407.855469 248.28125 C 407.855469 248.28125 535.902344 332.285156 535.902344 332.285156 C 537.296875 333.199219 539.175781 332.808594 540.089844 331.414062 C 541.003906 330.015625 540.617188 328.140625 539.21875 327.226562 C 539.21875 327.226562 409.527344 242.144531 409.527344 242.144531 C 408.523438 241.484375 407.230469 241.480469 406.226562 242.132812 C 406.226562 242.132812 395.195312 249.265625 379.65625 259.320312 C 378.253906 260.226562 377.851562 262.101562 378.761719 263.503906 C 379.667969 264.90625 381.542969 265.304688 382.945312 264.398438 Z M 382.945312 264.398438 " fill-opacity="1" fill-rule="evenodd"/><path fill="#bd9468" d="M 287.589844 283.792969 L 287.589844 260.945312 C 287.589844 259.285156 286.234375 257.933594 284.574219 257.933594 L 259.371094 257.933594 C 257.699219 257.933594 256.355469 259.285156 256.355469 260.945312 L 256.355469 301.160156 C 256.355469 302.824219 257.699219 304.171875 259.371094 304.171875 C 261.035156 304.171875 262.386719 302.824219 262.386719 301.160156 L 262.386719 263.957031 C 262.386719 263.957031 281.558594 263.957031 281.558594 263.957031 L 281.558594 283.792969 C 281.558594 285.453125 282.910156 286.804688 284.574219 286.804688 C 286.234375 286.804688 287.589844 285.453125 287.589844 283.792969 Z M 287.589844 283.792969 " fill-opacity="1" fill-rule="evenodd"/><g fill="#bd9468" fill-opacity="1"><g transform="translate(296.595691, 464.282373)"><g><path d="M 23.984375 -9.390625 L 25.25 -9.390625 L 24.8125 0 L 2 0 L 2 -1.21875 L 5.6875 -1.21875 L 5.6875 -25.84375 L 2 -25.84375 L 2 -27.046875 L 24.1875 -27.046875 L 24.265625 -19.078125 L 23.046875 -19.078125 C 22.867188 -21.359375 22.238281 -23.03125 21.15625 -24.09375 C 20.082031 -25.15625 18.332031 -25.710938 15.90625 -25.765625 L 9.1875 -25.84375 L 9.1875 -14.453125 L 13.984375 -14.453125 C 15.109375 -14.453125 15.941406 -14.78125 16.484375 -15.4375 C 17.085938 -16.269531 17.390625 -17.484375 17.390625 -19.078125 L 18.609375 -19.078125 L 18.609375 -8.203125 L 17.390625 -8.203125 C 17.390625 -9.742188 17.066406 -10.945312 16.421875 -11.8125 C 15.785156 -12.675781 14.972656 -13.109375 13.984375 -13.109375 L 9.1875 -13.109375 L 9.1875 -1.21875 L 16.53125 -1.328125 C 17.257812 -1.328125 18.140625 -1.523438 19.171875 -1.921875 C 20.210938 -2.316406 20.984375 -2.765625 21.484375 -3.265625 C 23.046875 -4.722656 23.878906 -6.765625 23.984375 -9.390625 Z M 23.984375 -9.390625 "/></g></g></g><g fill="#bd9468" fill-opacity="1"><g transform="translate(324.005801, 464.282373)"><g><path d="M 19.28125 -8.640625 C 19.28125 -5.597656 18.0625 -3.28125 15.625 -1.6875 C 13.53125 -0.300781 10.898438 0.390625 7.734375 0.390625 C 5.828125 0.390625 3.691406 -0.0507812 1.328125 -0.9375 L 1.375 -7.1875 L 2.546875 -7.1875 C 2.703125 -5.113281 3.316406 -3.617188 4.390625 -2.703125 C 4.890625 -2.285156 5.625 -1.929688 6.59375 -1.640625 C 7.5625 -1.359375 8.441406 -1.226562 9.234375 -1.25 C 11.035156 -1.28125 12.617188 -1.765625 13.984375 -2.703125 C 15.316406 -3.671875 16.007812 -4.96875 16.0625 -6.59375 C 16.0625 -8.300781 15.460938 -9.664062 14.265625 -10.6875 C 13.078125 -11.707031 11.4375 -12.332031 9.34375 -12.5625 C 3.769531 -13.238281 0.984375 -15.566406 0.984375 -19.546875 C 0.984375 -22.328125 2.039062 -24.4375 4.15625 -25.875 C 5.96875 -27.132812 8.171875 -27.765625 10.765625 -27.765625 C 11.515625 -27.765625 12.410156 -27.648438 13.453125 -27.421875 C 14.503906 -27.203125 15.179688 -27.09375 15.484375 -27.09375 C 15.785156 -27.09375 15.988281 -27.289062 16.09375 -27.6875 L 17.203125 -27.6875 L 17.203125 -20.65625 L 16.015625 -20.65625 C 15.835938 -22.59375 15.253906 -23.992188 14.265625 -24.859375 C 13.285156 -25.722656 11.828125 -26.140625 9.890625 -26.109375 C 6.066406 -26.054688 4.179688 -24.34375 4.234375 -20.96875 C 4.285156 -17.957031 6.378906 -16.242188 10.515625 -15.828125 C 16.359375 -15.191406 19.28125 -12.796875 19.28125 -8.640625 Z M 19.28125 -8.640625 "/></g></g></g><g fill="#bd9468" fill-opacity="1"><g transform="translate(344.151052, 464.282373)"><g><path d="M 25.203125 -27.046875 L 25.28125 -19.078125 L 24.109375 -19.078125 C 23.953125 -21.273438 23.363281 -22.90625 22.34375 -23.96875 C 21.320312 -25.03125 19.53125 -25.628906 16.96875 -25.765625 L 15.15625 -25.84375 L 15.15625 -1.21875 L 18.84375 -1.21875 L 18.84375 0 L 7.9375 0 L 7.9375 -1.21875 L 11.578125 -1.21875 L 11.578125 -25.84375 L 9.8125 -25.765625 C 7.269531 -25.648438 5.492188 -25.085938 4.484375 -24.078125 C 3.484375 -23.078125 2.863281 -21.410156 2.625 -19.078125 L 1.484375 -19.078125 L 1.578125 -27.046875 Z M 25.203125 -27.046875 "/></g></g></g><g fill="#bd9468" fill-opacity="1"><g transform="translate(370.383083, 464.282373)"><g><path d="M 28.46875 -1.21875 L 28.46875 0 L 18.265625 0 L 18.265625 -1.21875 L 21.40625 -1.21875 L 18.734375 -8.953125 L 9.265625 -8.953125 L 7.78125 -5.421875 C 7.300781 -4.210938 7.0625 -3.328125 7.0625 -2.765625 C 7.0625 -2.203125 7.140625 -1.800781 7.296875 -1.5625 C 7.453125 -1.332031 8.28125 -1.21875 9.78125 -1.21875 L 9.78125 0 L 1.21875 0 L 1.21875 -1.21875 C 2.582031 -1.1875 3.570312 -1.359375 4.1875 -1.734375 C 4.800781 -2.117188 5.472656 -3.347656 6.203125 -5.421875 L 14.71875 -27.796875 L 16.296875 -27.796875 L 25.5625 -1.21875 Z M 9.8125 -10.4375 L 18.1875 -10.4375 L 14.296875 -21.953125 Z M 9.8125 -10.4375 "/></g></g></g><g fill="#bd9468" fill-opacity="1"><g transform="translate(399.756678, 464.282373)"><g><path d="M 25.203125 -27.046875 L 25.28125 -19.078125 L 24.109375 -19.078125 C 23.953125 -21.273438 23.363281 -22.90625 22.34375 -23.96875 C 21.320312 -25.03125 19.53125 -25.628906 16.96875 -25.765625 L 15.15625 -25.84375 L 15.15625 -1.21875 L 18.84375 -1.21875 L 18.84375 0 L 7.9375 0 L 7.9375 -1.21875 L 11.578125 -1.21875 L 11.578125 -25.84375 L 9.8125 -25.765625 C 7.269531 -25.648438 5.492188 -25.085938 4.484375 -24.078125 C 3.484375 -23.078125 2.863281 -21.410156 2.625 -19.078125 L 1.484375 -19.078125 L 1.578125 -27.046875 Z M 25.203125 -27.046875 "/></g></g></g><g fill="#bd9468" fill-opacity="1"><g transform="translate(425.98871, 464.282373)"><g><path d="M 23.984375 -9.390625 L 25.25 -9.390625 L 24.8125 0 L 2 0 L 2 -1.21875 L 5.6875 -1.21875 L 5.6875 -25.84375 L 2 -25.84375 L 2 -27.046875 L 24.1875 -27.046875 L 24.265625 -19.078125 L 23.046875 -19.078125 C 22.867188 -21.359375 22.238281 -23.03125 21.15625 -24.09375 C 20.082031 -25.15625 18.332031 -25.710938 15.90625 -25.765625 L 9.1875 -25.84375 L 9.1875 -14.453125 L 13.984375 -14.453125 C 15.109375 -14.453125 15.941406 -14.78125 16.484375 -15.4375 C 17.085938 -16.269531 17.390625 -17.484375 17.390625 -19.078125 L 18.609375 -19.078125 L 18.609375 -8.203125 L 17.390625 -8.203125 C 17.390625 -9.742188 17.066406 -10.945312 16.421875 -11.8125 C 15.785156 -12.675781 14.972656 -13.109375 13.984375 -13.109375 L 9.1875 -13.109375 L 9.1875 -1.21875 L 16.53125 -1.328125 C 17.257812 -1.328125 18.140625 -1.523438 19.171875 -1.921875 C 20.210938 -2.316406 20.984375 -2.765625 21.484375 -3.265625 C 23.046875 -4.722656 23.878906 -6.765625 23.984375 -9.390625 Z M 23.984375 -9.390625 "/></g></g></g></svg>